<svg xmlns="http://www.w3.org/2000/svg" viewBox="0 0 24 24" width="24" height="24" fill="currentColor">
  <path d="M20.093 14.86c-1.8-.354-3.585-.147-5.186.586-1.12.513-2.146 1.258-3.045 2.158A14.908 14.908 0 0 1 6.398 12.14c.899-.899 1.644-1.925 2.158-3.045.733-1.601.94-3.385.586-5.186C8.847 2.404 7.6 1.157 6.1 1.091 4.316.94 1.002 2.373 1.002 6c0 10.982 9.019 20 20 20 3.627 0 5.06-3.313 4.909-5.097-.066-1.5-1.312-2.747-2.818-3.043h-3.001zM6.027 3.095c.571.026 1.144.5 1.517 1.042.802 1.459-1.071 3.27-2.071 4.27-.406.406-.86.772-1.346 1.09C3.606 7.683 4.416 4.706 6.027 3.095zM20.905 17.973c-1.611 1.611-4.588 2.421-6.402 1.898.318-.486.684-.94 1.09-1.346 1-1 2.811-2.873 4.27-2.071.542.373 1.016.946 1.042 1.519z"/>
</svg>
